<mxfile host="app.diagrams.net" modified="2023-09-08T23:55:57.216Z" agent="Mozilla/5.0 (Macintosh; Intel Mac OS X 10_15_7) AppleWebKit/605.1.15 (KHTML, like Gecko) Version/15.4 Safari/605.1.15" version="21.7.4" etag="esN5WSy7vPzeU_0qjARb" type="github">
  <diagram name="Page-1" id="EVfaa4GrBsak4QUsebbW">
    <mxGraphModel>
      <root>
        <mxCell id="0" />
        <mxCell id="1" parent="0" />
      </root>
    </mxGraphModel>
  </diagram>
</mxfile>
